<svg width="76" height="61" viewBox="0 0 76 61" fill="none" xmlns="http://www.w3.org/2000/svg">
<path d="M75.6829 28.975C68.0095 11.0944 53.5746 0 38 0C22.4254 0 7.99046 11.0944 0.317132 28.975C0.107964 29.456 0 29.9752 0 30.5C0 31.0248 0.107964 31.544 0.317132 32.025C7.99046 49.9056 22.4254 61 38 61C53.5746 61 68.0095 49.9056 75.6829 32.025C75.892 31.544 76 31.0248 76 30.5C76 29.9752 75.892 29.456 75.6829 28.975ZM38 53.375C25.9582 53.375 14.5622 44.6444 7.99046 30.5C14.5622 16.3556 25.9582 7.625 38 7.625C50.0418 7.625 61.4378 16.3556 68.0095 30.5C61.4378 44.6444 50.0418 53.375 38 53.375ZM38 15.25C34.9948 15.25 32.057 16.1444 29.5583 17.8201C27.0595 19.4958 25.112 21.8775 23.9619 24.6641C22.8119 27.4506 22.511 30.5169 23.0973 33.4751C23.6835 36.4333 25.1307 39.1506 27.2557 41.2834C29.3807 43.4161 32.0882 44.8686 35.0357 45.457C37.9831 46.0454 41.0383 45.7434 43.8148 44.5892C46.5912 43.4349 48.9643 41.4803 50.6339 38.9724C52.3036 36.4646 53.1947 33.5162 53.1947 30.5C53.1947 26.4554 51.5938 22.5766 48.7443 19.7166C45.8947 16.8567 42.0299 15.25 38 15.25ZM38 38.125C36.4974 38.125 35.0285 37.6778 33.7791 36.84C32.5298 36.0021 31.556 34.8112 30.981 33.418C30.4059 32.0247 30.2555 30.4915 30.5486 29.0124C30.8418 27.5333 31.5654 26.1747 32.6279 25.1083C33.6904 24.0419 35.0441 23.3157 36.5178 23.0215C37.9916 22.7273 39.5191 22.8783 40.9074 23.4554C42.2956 24.0325 43.4822 25.0099 44.317 26.2638C45.1518 27.5177 45.5974 28.9919 45.5974 30.5C45.5974 32.5223 44.7969 34.4617 43.3721 35.8917C41.9474 37.3217 40.0149 38.125 38 38.125Z" fill="#F28383"/>
</svg>
