<svg width="24" height="24" viewBox="0 0 24 24" fill="none" xmlns="http://www.w3.org/2000/svg">
<g clip-path="url(#clip0)">
<path d="M9.993 20V9.72899L0 4.86499V10.409V14.595L9.993 20Z" fill="#F9F1F0"/>
<path d="M20 4.85999V10.18C19.7 10.06 19.37 9.99999 19.03 9.99999C18.37 9.99999 17.73 10.24 17.219 10.68L13.94 13.54C13.34 14.07 13 14.82 13 15.61C13 16.41 13.34 17.17 13.94 17.69L14.07 17.799L10.01 20V9.72999L20 4.85999Z" fill="#F79489"/>
<path d="M20 4.86L10.01 9.73L6.12 7.84L4.5 7.05L0 4.86L9.99 0L14.25 2.07L15.95 2.89L20 4.86Z" fill="#F79489"/>
<path d="M15.731 2.79601L5.84901 7.72001V12.694L4.28201 11.896V6.95601L14.032 1.97601L15.731 2.79601Z" fill="white"/>
<path d="M0 4.86499V10.409V14.595L9.993 20V9.72899L5.857 7.71599L5.849 7.71999V12.694L4.282 11.896V6.95599L4.289 6.95299L0 4.86499Z" fill="#F79489"/>
<path d="M10 5.652L5.862 7.714L6.12 7.84L10 9.725V5.652ZM9.99 0L0 4.86L4.294 6.95L10 4.036V0.005L9.99 0Z" fill="#F79489"/>
<path d="M10 4.03601L4.29401 6.95001L4.28901 6.95301L4.28201 6.95601V11.896L5.84901 12.694V7.72001L5.85701 7.71601L5.86201 7.71401L10 5.65201V4.03601Z" fill="#FDFDFD"/>
<path d="M17.743 14.87L19.524 13.315C19.837 13.043 19.869 12.569 19.596 12.257C19.324 11.944 18.85 11.913 18.537 12.185L15.256 15.049L15.241 15.069L15.111 15.244L15.064 15.313C15.024 15.405 15 15.506 15 15.614C15 15.721 15.024 15.822 15.065 15.915L15.112 15.984L15.242 16.159L15.257 16.179L18.538 19.042C18.681 19.166 18.856 19.227 19.031 19.227C19.24 19.227 19.448 19.14 19.596 18.97C19.868 18.658 19.836 18.184 19.524 17.912L17.766 16.378C20.388 16.457 22.499 18.646 22.499 21.34V23.249C22.499 23.663 22.835 23.999 23.249 23.999C23.663 23.999 23.999 23.663 23.999 23.249V21.34C24 17.81 21.204 14.935 17.743 14.87Z" fill="#F8AFA6"/>
<path d="M19.032 12C18.857 12 18.681 12.061 18.538 12.185L15.257 15.049L15.242 15.069L15.112 15.244L15.065 15.313C15.024 15.405 15 15.506 15 15.614C15 15.721 15.024 15.822 15.065 15.915L15.112 15.984L15.242 16.159L15.257 16.179L18.538 19.042C18.681 19.166 18.856 19.227 19.031 19.227C19.24 19.227 19.448 19.14 19.596 18.97C19.868 18.658 19.836 18.184 19.524 17.912L17.766 16.378C19.018 16.416 20.154 16.935 20.999 17.761V15.852C20.051 15.249 18.936 14.892 17.742 14.87L19.523 13.315C19.836 13.043 19.868 12.569 19.595 12.257C19.448 12.087 19.241 12 19.032 12Z" fill="#F79489"/>
</g>
<defs>
<clipPath id="clip0">
<rect width="24" height="24" fill="white"/>
</clipPath>
</defs>
</svg>
