<svg width="42" height="47" viewBox="0 0 42 47" fill="none" xmlns="http://www.w3.org/2000/svg">
<path d="M41.6671 36.1909L35.3496 24.8994C36.6424 22.442 37.3158 19.6871 37.3078 16.8891C37.3078 12.4098 35.5886 8.11402 32.5284 4.9467C29.4681 1.77938 25.3175 0 20.9897 0C16.6619 0 12.5113 1.77938 9.45106 4.9467C6.39082 8.11402 4.67159 12.4098 4.67159 16.8891C4.66357 19.6871 5.33703 22.442 6.62977 24.8994L0.312327 36.1909C0.107328 36.5584 -0.000403909 36.9754 1.13796e-06 37.3997C0.000406185 37.824 0.108933 38.2408 0.314634 38.6078C0.520334 38.9749 0.815932 39.2793 1.17161 39.4904C1.52728 39.7015 1.93045 39.8117 2.34044 39.81H9.03086L12.4344 45.7453C12.5491 45.942 12.6904 46.1208 12.854 46.2761C13.2861 46.7072 13.8623 46.9492 14.4625 46.9517H14.7888C15.1408 46.9019 15.477 46.7694 15.772 46.5645C16.0669 46.3596 16.3127 46.0877 16.4906 45.7695L20.9897 37.7592L25.4888 45.8418C25.6693 46.1556 25.9163 46.4228 26.2111 46.6234C26.5058 46.824 26.8408 46.9528 27.1906 47H27.517C28.1252 47.0037 28.7108 46.7613 29.1488 46.3244C29.3056 46.1779 29.4393 46.0069 29.5451 45.8177L32.9486 39.8824H39.639C40.0498 39.8841 40.4537 39.7734 40.8098 39.5616C41.166 39.3497 41.4617 39.0442 41.6671 38.676C41.8849 38.3008 42 37.8713 42 37.4335C42 36.9957 41.8849 36.5662 41.6671 36.1909V36.1909ZM14.4392 39.8824L12.3644 36.2874C12.1601 35.9308 11.8705 35.6346 11.5234 35.4275C11.1763 35.2204 10.7835 35.1094 10.3829 35.1052H6.35003L9.68359 29.1216C11.9791 31.411 14.8723 32.9544 18.0058 33.5611L14.4392 39.8824ZM20.9897 28.9527C18.6844 28.9527 16.4309 28.2452 14.5141 26.9197C12.5973 25.5941 11.1034 23.71 10.2212 21.5057C9.33896 19.3013 9.10813 16.8757 9.55788 14.5356C10.0076 12.1955 11.1177 10.0459 12.7478 8.35882C14.3779 6.67169 16.4548 5.52274 18.7158 5.05726C20.9768 4.59178 23.3204 4.83068 25.4502 5.74375C27.58 6.65682 29.4004 8.20304 30.6812 10.1869C31.9619 12.1708 32.6455 14.5031 32.6455 16.8891C32.6455 20.0886 31.4175 23.157 29.2316 25.4194C27.0457 27.6818 24.081 28.9527 20.9897 28.9527V28.9527ZM31.5965 35.1052C31.1959 35.1094 30.8031 35.2204 30.456 35.4275C30.109 35.6346 29.8193 35.9308 29.615 36.2874L27.5403 39.8824L23.9969 33.4887C27.1194 32.8696 30.0019 31.3276 32.2958 29.0493L35.6294 35.0328L31.5965 35.1052Z" fill="#F28383"/>
</svg>
