<svg width="50" height="49" viewBox="0 0 50 49" fill="none" xmlns="http://www.w3.org/2000/svg">
<g filter="url(#filter0_d)">
<path d="M25 0C20.8466 0 16.7865 1.2023 13.333 3.45487C9.8796 5.70744 7.18798 8.9091 5.59854 12.655C4.0091 16.4009 3.59323 20.5227 4.40352 24.4993C5.21381 28.476 7.21386 32.1287 10.1508 34.9957C13.0877 37.8627 16.8295 39.8151 20.9031 40.6061C24.9767 41.3971 29.1991 40.9911 33.0364 39.4395C36.8736 37.8879 40.1534 35.2604 42.4609 31.8892C44.7684 28.518 46 24.5545 46 20.5C46 17.8079 45.4568 15.1422 44.4015 12.655C43.3461 10.1678 41.7993 7.90791 39.8492 6.00431C37.8992 4.10071 35.5842 2.59069 33.0364 1.56047C30.4885 0.530248 27.7578 0 25 0ZM25 36.9C21.6773 36.9 18.4292 35.9381 15.6664 34.1361C12.9037 32.334 10.7504 29.7727 9.47883 26.776C8.20728 23.7793 7.87458 20.4818 8.52282 17.3005C9.17105 14.1192 10.7711 11.197 13.1206 8.90345C15.4701 6.60987 18.4636 5.04792 21.7225 4.41512C24.9814 3.78232 28.3593 4.1071 31.4291 5.34837C34.4989 6.58965 37.1227 8.69168 38.9687 11.3886C40.8147 14.0856 41.8 17.2564 41.8 20.5C41.8 24.8495 40.03 29.0209 36.8794 32.0965C33.7288 35.1721 29.4556 36.9 25 36.9ZM25 8.2C24.4431 8.2 23.9089 8.41598 23.5151 8.80043C23.1213 9.18488 22.9 9.7063 22.9 10.25V19.311L18.49 21.7915C18.0855 22.0153 17.7684 22.3638 17.5886 22.7824C17.4089 23.201 17.3765 23.6661 17.4966 24.1046C17.6167 24.5431 17.8825 24.9303 18.2523 25.2054C18.6221 25.4806 19.075 25.6282 19.54 25.625C19.9079 25.6275 20.27 25.5356 20.59 25.3585L26.05 22.2835L26.239 22.099L26.575 21.8325C26.6571 21.731 26.7275 21.621 26.785 21.5045C26.8534 21.3944 26.9098 21.2776 26.953 21.156C27.0101 21.0257 27.0456 20.8872 27.058 20.746L27.1 20.5V10.25C27.1 9.7063 26.8788 9.18488 26.4849 8.80043C26.0911 8.41598 25.557 8.2 25 8.2Z" fill="#F28383"/>
</g>
<defs>
<filter id="filter0_d" x="0" y="0" width="50" height="49" filterUnits="userSpaceOnUse" color-interpolation-filters="sRGB">
<feFlood flood-opacity="0" result="BackgroundImageFix"/>
<feColorMatrix in="SourceAlpha" type="matrix" values="0 0 0 0 0 0 0 0 0 0 0 0 0 0 0 0 0 0 127 0"/>
<feOffset dy="4"/>
<feGaussianBlur stdDeviation="2"/>
<feColorMatrix type="matrix" values="0 0 0 0 0 0 0 0 0 0 0 0 0 0 0 0 0 0 0.25 0"/>
<feBlend mode="normal" in2="BackgroundImageFix" result="effect1_dropShadow"/>
<feBlend mode="normal" in="SourceGraphic" in2="effect1_dropShadow" result="shape"/>
</filter>
</defs>
</svg>
