<svg width="24" height="24" viewBox="0 0 24 24" fill="none" xmlns="http://www.w3.org/2000/svg">
<path d="M12.0042 0.00326551C7.20275 0.00256566 2.86325 2.86462 0.973396 7.27855L0.823827 7.32814L0.881815 7.5021C-1.60647 13.6391 1.35137 20.6313 7.48839 23.1196C8.92174 23.7008 10.454 23.9991 12.0007 23.9983C18.6267 23.9993 23.999 18.6286 24 12.0026C24.001 5.37654 18.6303 0.00421531 12.0042 0.00326551ZM21.4149 18.0497L20.7989 17.434V15.9999C20.7996 15.938 20.7859 15.8769 20.7589 15.8212L19.1992 12.7062V11.2009C19.1992 11.0673 19.1325 10.9424 19.0212 10.8682L17.8215 10.0684C17.7275 10.0056 17.6112 9.98553 17.5015 10.0132L16.0323 10.3803L13.5644 9.32132L13.2248 6.94262L14.1658 6.00201H16.1858L16.8657 7.0238C16.9271 7.11568 17.0238 7.17812 17.1328 7.19616L19.5323 7.59608C19.5966 7.60688 19.6625 7.60163 19.7243 7.58088L21.9342 6.84424C23.7878 10.4012 23.5895 14.6794 21.4149 18.0497ZM19.7655 3.94404L19.1152 4.37755L17.3024 4.01483L16.1262 3.62331C16.0543 3.59887 15.9768 3.59577 15.9031 3.61451L14.4162 3.98603L13.7643 3.76888L14.2474 2.80268H15.5999C15.662 2.80273 15.7232 2.78838 15.7787 2.76069L17.1624 2.06883C18.1153 2.56623 18.9919 3.1977 19.7655 3.94404ZM7.62041 1.69611L8.58021 2.33598C8.6274 2.36737 8.68069 2.38837 8.73658 2.39757L10.6746 2.7207L10.4854 3.28658L9.47562 3.62371C9.38519 3.6538 9.30846 3.71519 9.25927 3.79687L8.11071 5.71087L6.26589 6.81784L3.54646 7.20616C3.34935 7.23401 3.20278 7.40262 3.20253 7.60168V8.80143C3.20253 8.90751 3.24472 9.00919 3.31971 9.08417L4.00237 9.76683V10.4539L2.33871 9.34452L1.73524 7.53409C2.8834 4.91064 4.98781 2.82308 7.62041 1.69611ZM6.48185 14.8082L4.67422 14.4463L4.00237 13.1061V12.1663L5.49245 10.6762L6.04394 11.7796C6.11167 11.9152 6.2503 12.0008 6.40186 12.0008H8.97493L10.0583 13.8064C10.1306 13.9267 10.2607 14.0003 10.401 14.0003H11.5128L11.2329 15.4029L9.71877 16.9169C9.64364 16.9919 9.60135 17.0935 9.6012 17.1997V18.1995L8.1615 19.2792C8.06082 19.3548 8.00153 19.4733 8.00153 19.5992V21.0437L7.50403 20.8789L6.80178 19.1225V15.2001C6.80183 15.01 6.66806 14.8462 6.48185 14.8082ZM5.2797 20.9559C1.50903 18.1271 -0.0855829 13.2393 1.29133 8.73104L1.62366 9.72764C1.65165 9.81197 1.70694 9.8846 1.78083 9.93399L3.77441 11.2629L3.31971 11.718C3.24472 11.793 3.20253 11.8947 3.20253 12.0008V13.2005C3.20248 13.2625 3.21683 13.3237 3.24452 13.3793L4.04436 14.9789C4.09974 15.0894 4.20307 15.1681 4.3243 15.1921L6.00395 15.5276V19.1993C6.0039 19.25 6.01355 19.3004 6.03234 19.3476L6.83217 21.3472C6.87597 21.4564 6.96565 21.5409 7.07732 21.578L8.27707 21.9779C8.31717 21.9915 8.35916 21.9985 8.40145 21.9987C8.6223 21.9987 8.80136 21.8196 8.80136 21.5988V19.7991L10.2411 18.7194C10.3417 18.6438 10.401 18.5253 10.401 18.3994V17.3652L11.8835 15.8828C11.9393 15.8269 11.9773 15.7558 11.9927 15.6784L12.3926 13.6788C12.4359 13.4622 12.2954 13.2516 12.0788 13.2083C12.0531 13.2031 12.0269 13.2005 12.0007 13.2005H10.6274L9.54401 11.3949C9.47172 11.2746 9.34165 11.201 9.20128 11.2009H6.64901L5.96196 9.82242C5.90442 9.70734 5.79504 9.62696 5.66802 9.60646C5.54104 9.58452 5.41142 9.62641 5.32129 9.71844L4.8022 10.2355V9.60126C4.8022 9.49518 4.76001 9.39351 4.68502 9.31852L4.00237 8.63586V7.94841L6.45865 7.59768C6.51139 7.59003 6.56213 7.57194 6.60782 7.54449L8.6074 6.34474C8.66349 6.31105 8.71048 6.26406 8.74418 6.20797L9.86794 4.33516L10.9273 3.98164C11.0469 3.94239 11.1408 3.84856 11.1801 3.72889L11.58 2.52914C11.6493 2.31943 11.5354 2.09323 11.3257 2.02394C11.3064 2.01755 11.2865 2.01265 11.2665 2.00925L8.95173 1.62333L8.54502 1.35218C11.0616 0.533055 13.7874 0.634434 16.2362 1.63812L15.5056 2.00285H14.0003C13.848 2.002 13.7084 2.08778 13.6404 2.224L12.8405 3.82367C12.742 4.02133 12.8223 4.26148 13.02 4.36001C13.0368 4.3684 13.0542 4.3756 13.0721 4.38155L14.2718 4.78147C14.3438 4.80591 14.4213 4.80901 14.495 4.79027L15.9819 4.41874L17.0712 4.78147C17.0868 4.78707 17.1029 4.79137 17.1192 4.79427L19.1188 5.19418C19.2228 5.21538 19.331 5.19408 19.4191 5.13499L20.3294 4.52792C20.7773 5.02687 21.1799 5.56475 21.5323 6.13519L19.5647 6.79105L17.4344 6.43592L16.7305 5.38014C16.6567 5.26952 16.5328 5.20283 16.3998 5.20218H14.0003C13.8942 5.20218 13.7925 5.24437 13.7175 5.31936L12.5178 6.51911C12.4287 6.60814 12.3868 6.73396 12.4046 6.85863L12.8045 9.65805C12.8247 9.79647 12.9157 9.9143 13.0445 9.96879L15.8439 11.1685C15.9241 11.2033 16.0136 11.2104 16.0982 11.1889L17.5263 10.8318L18.3994 11.4149V12.8006C18.3987 12.8625 18.4124 12.9237 18.4394 12.9794L19.999 16.0943V17.5996C19.999 17.7057 20.0412 17.8074 20.1162 17.8823L20.9528 18.7194C17.2425 23.665 10.2253 24.6664 5.2797 20.9559Z" fill="#F79489"/>
</svg>
